<svg width="375" height="64" viewBox="0 0 375 64" fill="none" xmlns="http://www.w3.org/2000/svg">
<rect width="375" height="64" fill="white"/>
<path fill-rule="evenodd" clip-rule="evenodd" d="M224.998 38.2465V41.6078H219.116C218.481 41.6078 217.963 41.4024 217.561 40.9916C217.16 40.5808 216.959 40.0579 216.959 39.423V31.0756H212.841V27.7143H216.959V22H220.488V27.7143H225.502V31.0756H220.488V37.4062C220.488 37.9664 220.74 38.2465 221.244 38.2465H224.998ZM156.387 42C158.217 42 159.636 41.5892 160.644 40.7675C161.653 39.9458 162.157 38.8441 162.157 37.4622V37.2941C162.157 36.043 161.709 35.0672 160.812 34.3669C159.916 33.6667 158.758 33.2418 157.339 33.0924C156.106 32.9617 155.257 32.7983 154.79 32.6022C154.323 32.4062 154.09 32.084 154.09 31.6359C154.09 31.3184 154.239 31.0523 154.538 30.8375C154.837 30.6228 155.285 30.5154 155.882 30.5154C156.536 30.5154 157.068 30.6601 157.479 30.9496C157.89 31.239 158.179 31.6359 158.347 32.1401L161.541 30.8515C161.391 30.4594 161.176 30.0532 160.896 29.6331C160.616 29.2129 160.252 28.8301 159.804 28.4846C159.356 28.1391 158.81 27.859 158.165 27.6443C157.521 27.4295 156.76 27.3221 155.882 27.3221C155.21 27.3221 154.556 27.4155 153.922 27.6022C153.287 27.789 152.726 28.0644 152.241 28.4286C151.755 28.7927 151.363 29.2362 151.064 29.7591C150.766 30.282 150.616 30.8889 150.616 31.5798V31.7479C150.616 33.0738 151.078 34.0775 152.003 34.7591C152.927 35.4407 154.174 35.8469 155.742 35.9776C156.321 36.0336 156.802 36.1083 157.185 36.2017C157.568 36.2951 157.871 36.4118 158.095 36.5518C158.319 36.6919 158.473 36.8413 158.557 37C158.641 37.1587 158.683 37.3315 158.683 37.5182C158.683 37.8357 158.52 38.1298 158.193 38.4006C157.866 38.6713 157.264 38.8067 156.387 38.8067C155.397 38.8067 154.664 38.5826 154.188 38.1345C153.711 37.6863 153.399 37.1634 153.249 36.5658L150 37.6303C150.093 38.1158 150.275 38.6153 150.546 39.1289C150.817 39.6424 151.204 40.1092 151.709 40.5294C152.213 40.9496 152.848 41.2997 153.613 41.5798C154.379 41.8599 155.303 42 156.387 42ZM172.111 42C174.09 42 175.673 41.4958 176.859 40.4874C178.045 39.479 178.796 38.1531 179.114 36.5098L175.64 35.6415C175.472 36.5565 175.103 37.2848 174.534 37.8263C173.964 38.3679 173.138 38.6387 172.055 38.6387C171.551 38.6387 171.074 38.5593 170.626 38.4006C170.178 38.2418 169.786 38.0037 169.45 37.6863C169.114 37.3688 168.848 36.972 168.651 36.4958C168.455 36.0196 168.357 35.4734 168.357 34.8571V34.6891C168.357 34.0728 168.455 33.5173 168.651 33.0224C168.848 32.5275 169.114 32.1074 169.45 31.7619C169.786 31.4164 170.178 31.1503 170.626 30.9636C171.074 30.7768 171.551 30.6835 172.055 30.6835C173.138 30.6835 173.978 30.9823 174.576 31.5798C175.173 32.1774 175.528 32.887 175.64 33.7087L179.114 32.8123C178.796 31.169 178.035 29.8431 176.831 28.8347C175.626 27.8263 174.053 27.3221 172.111 27.3221C171.102 27.3221 170.155 27.4902 169.268 27.8263C168.381 28.1625 167.606 28.648 166.943 29.2829C166.28 29.9178 165.762 30.6835 165.388 31.5798C165.015 32.4762 164.828 33.4846 164.828 34.605V34.9412C164.828 36.0616 165.015 37.0607 165.388 37.9384C165.762 38.8161 166.275 39.5537 166.929 40.1513C167.582 40.7488 168.353 41.2064 169.24 41.5238C170.127 41.8413 171.084 42 172.111 42ZM190.566 41.5238C189.698 41.8413 188.788 42 187.835 42C186.883 42 185.972 41.8413 185.104 41.5238C184.236 41.2064 183.465 40.7442 182.793 40.1373C182.121 39.5303 181.589 38.7834 181.196 37.8964C180.804 37.0093 180.608 35.9869 180.608 34.8291V34.493C180.608 33.3539 180.804 32.3408 181.196 31.4538C181.589 30.5668 182.121 29.8151 182.793 29.1989C183.465 28.5826 184.236 28.1158 185.104 27.7983C185.972 27.4809 186.883 27.3221 187.835 27.3221C188.788 27.3221 189.698 27.4809 190.566 27.7983C191.435 28.1158 192.205 28.5826 192.877 29.1989C193.549 29.8151 194.082 30.5668 194.474 31.4538C194.866 32.3408 195.062 33.3539 195.062 34.493V34.8291C195.062 35.9869 194.866 37.0093 194.474 37.8964C194.082 38.7834 193.549 39.5303 192.877 40.1373C192.205 40.7442 191.435 41.2064 190.566 41.5238ZM187.835 38.6387C187.331 38.6387 186.855 38.5546 186.407 38.3866C185.958 38.2185 185.566 37.9757 185.23 37.6583C184.894 37.3408 184.628 36.9533 184.432 36.4958C184.236 36.0383 184.138 35.5201 184.138 34.9412V34.381C184.138 33.8021 184.236 33.2838 184.432 32.8263C184.628 32.3688 184.894 31.9813 185.23 31.6639C185.566 31.3464 185.958 31.1036 186.407 30.9356C186.855 30.7675 187.331 30.6835 187.835 30.6835C188.339 30.6835 188.816 30.7675 189.264 30.9356C189.712 31.1036 190.104 31.3464 190.44 31.6639C190.776 31.9813 191.042 32.3688 191.238 32.8263C191.435 33.2838 191.533 33.8021 191.533 34.381V34.9412C191.533 35.5201 191.435 36.0383 191.238 36.4958C191.042 36.9533 190.776 37.3408 190.44 37.6583C190.104 37.9757 189.712 38.2185 189.264 38.3866C188.816 38.5546 188.339 38.6387 187.835 38.6387ZM206.459 41.5238C205.59 41.8413 204.68 42 203.727 42C202.775 42 201.865 41.8413 200.996 41.5238C200.128 41.2064 199.358 40.7442 198.685 40.1373C198.013 39.5303 197.481 38.7834 197.089 37.8964C196.697 37.0093 196.501 35.9869 196.501 34.8291V34.493C196.501 33.3539 196.697 32.3408 197.089 31.4538C197.481 30.5668 198.013 29.8151 198.685 29.1989C199.358 28.5826 200.128 28.1158 200.996 27.7983C201.865 27.4809 202.775 27.3221 203.727 27.3221C204.68 27.3221 205.59 27.4809 206.459 27.7983C207.327 28.1158 208.097 28.5826 208.77 29.1989C209.442 29.8151 209.974 30.5668 210.366 31.4538C210.758 32.3408 210.954 33.3539 210.954 34.493V34.8291C210.954 35.9869 210.758 37.0093 210.366 37.8964C209.974 38.7834 209.442 39.5303 208.77 40.1373C208.097 40.7442 207.327 41.2064 206.459 41.5238ZM203.727 38.6387C203.223 38.6387 202.747 38.5546 202.299 38.3866C201.851 38.2185 201.459 37.9757 201.122 37.6583C200.786 37.3408 200.52 36.9533 200.324 36.4958C200.128 36.0383 200.03 35.5201 200.03 34.9412V34.381C200.03 33.8021 200.128 33.2838 200.324 32.8263C200.52 32.3688 200.786 31.9813 201.122 31.6639C201.459 31.3464 201.851 31.1036 202.299 30.9356C202.747 30.7675 203.223 30.6835 203.727 30.6835C204.232 30.6835 204.708 30.7675 205.156 30.9356C205.604 31.1036 205.996 31.3464 206.333 31.6639C206.669 31.9813 206.935 32.3688 207.131 32.8263C207.327 33.2838 207.425 33.8021 207.425 34.381V34.9412C207.425 35.5201 207.327 36.0383 207.131 36.4958C206.935 36.9533 206.669 37.3408 206.333 37.6583C205.996 37.9757 205.604 38.2185 205.156 38.3866C204.708 38.5546 204.232 38.6387 203.727 38.6387Z" fill="#495567"/>
<rect x="32" y="24" width="19.6923" height="3.69231" fill="#FCB72B"/>
<rect x="32" y="30.1538" width="19.6923" height="3.69231" fill="#FCB72B"/>
<rect x="32" y="36.3077" width="19.6923" height="3.69231" fill="#FCB72B"/>
</svg>
